<svg xmlns="http://www.w3.org/2000/svg" width="217" height="27.7" xmlns:v="https://vecta.io/nano"><path d="M84.7 2.6v-.9l-.4-.3h-15l-.3.3v.9l.3.3h6.4l.3.2v18.3l.3.3h1.1l.3-.3V3.2l.1-.2h6.5l.4-.4zM88.1 7c-4 0-6.4 2.9-6.4 7v.6c0 4 2 7.5 6.6 7.5 4 0 5.5-2.6 5.8-4.4l-.2-.2h-1.1l-.2.2c-.6 1.8-1.8 2.9-4 2.9-3.8 0-4.9-3.5-4.9-5.3l.3-.2h10.4l.3-.3V14c-.2-4.2-2.5-7-6.6-7h0zm0 1.5c1.8 0 2.9.7 3.6 1.7s1 2.2 1 3.2l-.2.3h-8.8l-.3-.3c0-1 .3-2.2 1-3.2.8-1 1.9-1.7 3.7-1.7zm9.3 6c0-4 2-6.1 4.9-6.1s4 1.8 4.4 3.5l.3.3h1.3l.3-.3c-.5-2.9-2.9-4.9-6.4-4.9-3.8 0-6.6 2.4-6.6 7.5 0 5.3 2.9 7.5 6.6 7.5 3.5 0 5.8-2 6.1-4.9l-.3-.2h-1l-.3.3c-.3 1.7-1.5 3.5-4.4 3.5-2.8-.1-4.9-2.1-4.9-6.2h0zm25 7v-8.8c0-3.8-2-5.8-5.3-5.8-2 0-3.8.9-4.6 2.4h-.3V1.8l-.4-.4h-1.1l-.3.3v19.8l.3.3h1.1l.3-.3v-7.9c0-3.3 1.5-5.3 4.6-5.3 2.4 0 3.8 1.5 3.8 4.4v8.8l.3.3h1.1l.5-.3h0zm14.8 0v-8.8c0-3.8-2-5.8-5.3-5.8-2 0-3.8.9-4.6 2.4h-.3l-.3-1.8-.3-.3h-.9l-.3.3v13.9l.3.3h1.1l.3-.3v-7.9c0-3.3 1.5-5.3 4.6-5.3 2.4 0 3.8 1.5 3.8 4.4v8.8l.3.3h1.3l.3-.2h0zm8.3-14.4c-3.8 0-6.6 2.6-6.6 7.5s2.9 7.5 6.6 7.5c3.8 0 6.6-2.6 6.6-7.5.1-4.9-2.8-7.5-6.6-7.5zm0 1.4c1.4 0 2.7.6 3.5 1.7.9 1.1 1.4 2.6 1.4 4.5s-.5 3.4-1.4 4.5-2.1 1.7-3.5 1.7-2.7-.6-3.5-1.7c-.9-1.1-1.4-2.6-1.4-4.5s.5-3.5 1.4-4.5c.9-1.2 2.1-1.7 3.5-1.7zm10.6 13V1.7l-.4-.3h-1.1l-.3.3v19.8l.3.3h1.1l.4-.3zm8.6-14.4c-3.8 0-6.6 2.6-6.6 7.5s2.9 7.5 6.6 7.5c3.8 0 6.6-2.6 6.6-7.5s-2.9-7.5-6.6-7.5h0zm0 1.4c1.4 0 2.7.6 3.5 1.7.9 1.1 1.4 2.6 1.4 4.5s-.5 3.4-1.4 4.5c-.8 1.1-2.1 1.7-3.5 1.7s-2.7-.6-3.5-1.7c-.9-1.1-1.4-2.6-1.4-4.5s.5-3.5 1.4-4.5c.8-1.2 2-1.7 3.5-1.7h0zM178.9 7c-4 0-6.1 3.2-6.1 7.5 0 4.4 2 7.5 6.1 7.5 2.6 0 4-1.1 4.6-2.4v.1c0 3.8-.9 6.6-4.4 6.6-2.6 0-3.5-1.1-3.8-2.6l-.3-.3h-1.1l-.3.3c.3 2.4 2 4 5.5 4 3.8 0 6.1-2.4 6.1-8.1v-12l-.3-.2h-.9l-.3.2-.3 1.8h-.2c-.2-1.2-1.6-2.4-4.3-2.4h0zm0 1.3c1.4 0 2.6.5 3.4 1.5s1.2 2.5 1.2 4.6-.4 3.6-1.2 4.6-2 1.5-3.4 1.5-2.6-.5-3.4-1.5-1.2-2.5-1.2-4.6c0-2 .4-3.5 1.2-4.6.9-.9 2-1.5 3.4-1.5zM190 4.7V3l-.2-.3h-1.1l-.5.3v1.8l.3.3h1.1l.4-.4zm0 16.8V7.6l-.2-.3h-1.1l-.4.3v13.9l.3.3h1.1l.3-.3zM198.3 7c-4 0-6.4 2.9-6.4 7v.6c0 4 2 7.5 6.6 7.5 4 0 5.5-2.6 5.8-4.4l-.3-.2h-1l-.3.2c-.6 1.8-1.7 2.9-4 2.9-3.8 0-4.9-3.5-4.9-5.3l.3-.2h10.4l.3-.3V14c-.1-4-2.4-7-6.5-7h0zm0 1.5c1.8 0 2.9.7 3.6 1.7s1 2.2 1 3.2l-.3.2H194l-.2-.3c0-1 .3-2.2 1-3.2.6-.9 1.8-1.6 3.5-1.6h0zM217 18c0-2.6-1.5-3.8-4.4-4.4s-4.6-.9-4.6-2.9c0-1.5 1.1-2.4 3.3-2.4 2.6 0 3.5 1.1 3.5 2.6l.3.3h1.1l.3-.3c0-2.9-2.4-4-5.3-4-3.3 0-4.9 1.8-4.9 3.8 0 2.4 1.8 3.5 4.6 4 2.9.6 4.4.9 4.4 3.3 0 1.5-.9 2.6-3.8 2.6-2.6 0-3.8-1.5-3.8-3.3l-.3-.2h-1.1l-.2.3c0 2.6 2 4.6 5.5 4.6 3.6.1 5.4-1.6 5.4-4h0z" fill="gray"/><path d="M69 17.5v4.1H56V1.2h4.7v16.3H69h0zM29.6 0L18.1 8.9c-1.2-4.4-5-7.7-9.8-7.7H0v20.4h8.3c4.7 0 8.9-3.3 9.8-7.7l11.5 8.9 11.5-8.9v7.7h13v-4.1h-8.6V1.2h-4.7v7.7l-10.9 8.9-2.4-2.1 5.3-4.1 5.6-4.4-3.3-2.7L24.3 13l-2.4-2.1 10.9-8.3L29.6 0h0zM4.4 5.3H8a4.99 4.99 0 0 1 2.1.5 7.49 7.49 0 0 1 1.8 1.3c.5.6.9 1.2 1.2 2 .3.7.5 1.6.5 2.5 0 .8-.1 1.6-.4 2.3s-.7 1.4-1.2 2-1.1 1-1.8 1.4c-.7.3-1.4.5-2.3.5H4.4V5.3z" fill="#007db8"/><defs ><path  d="M61.8-71.7v.2c-.1.1-.1.1-.2.1-.1.1-.1.3-.1.4-.2.1 0 .2 0 .3v.2c0 .1 0 .3.1.4.1.2.3.4.4.5.2.1.4.6.6.6s.4-.1.5-.1c.2 0 .4 0 .6-.1s.1-.3.3-.5c.1-.1.3 0 .4-.1.2-.1.3-.3.4-.5v-.2c0-.1.1-.2.1-.3s-.1-.1-.1-.2v-.3c0-.2 0-.4-.1-.5-.4-.7-1.2-.9-2-.8-.2 0-.3.1-.4.2-.2.1-.1.2-.3.2-.1 0-.2.1-.2.2v.3c0 .1 0 .1 0 0"/><path  d="M69.4-64v.2c-.1.1-.1.1-.2.1-.1.1-.1.3-.1.4-.2.1 0 .2 0 .3v.2c0 .1 0 .3.1.4.1.2.3.4.4.5.2.1.4.6.6.6s.4-.1.5-.1c.2 0 .4 0 .6-.1s.1-.3.3-.5c.1-.1.3 0 .4-.1.2-.1.3-.3.4-.5v-.2c0-.1.1-.2.1-.3s-.1-.1-.1-.2v-.3c0-.2 0-.4-.1-.5-.4-.7-1.2-.9-2-.8-.2 0-.3.1-.4.2-.2.1-.1.2-.3.2-.1 0-.2.1-.2.2v.3"/><path  d="M8.2-56.3v.2c-.1 0-.2 0-.2.1-.1.1-.1.3-.1.4-.2.1 0 .2 0 .3v.2c0 .1 0 .3.1.4.1.2.3.4.4.5.2.1.4.6.6.6s.4-.1.5-.1c.2 0 .4 0 .6-.1s.1-.3.3-.5c.1-.1.3 0 .4-.1.2-.1.3-.3.4-.5v-.2c0-.1.1-.2.1-.3s-.1-.1-.1-.2v-.3c0-.2 0-.4-.1-.5-.4-.7-1.2-.9-2-.8-.2 0-.3.1-.4.2-.2.1-.1.2-.3.2-.1 0-.2.1-.2.2v.3c-.1 0-.1 0 0 0"/><path  d="M69.4-18.1v.2c-.1.1-.1.1-.2.1-.1.1-.1.3-.1.4-.2.1 0 .2 0 .3v.2c0 .1 0 .3.1.4.1.2.3.4.4.5.2.1.4.6.6.6s.4-.1.5-.1c.2 0 .4 0 .6-.1s.1-.3.3-.5c.1-.1.3 0 .4-.1.2-.1.3-.3.4-.5v-.2c0-.1.1-.2.1-.3s-.1-.1-.1-.2v-.3c0-.2 0-.4-.1-.5-.4-.7-1.2-.9-2-.8-.2 0-.3.1-.4.2-.2.1-.1.2-.3.2-.1 0-.2.1-.2.2v.3c0 .1 0 0 0 0"/><path  d="M61.8-10.4v.2c-.1.1-.1.1-.2.1-.1.1-.1.3-.1.4-.2.1 0 .2 0 .3v.2c0 .1 0 .3.1.4.1.2.3.4.4.5.2.1.4.6.6.6s.4-.1.5-.1c.2 0 .4 0 .6-.1s.1-.3.3-.4c.1-.1.3 0 .4-.1.2-.1.3-.3.4-.5v-.2c0-.1.1-.2.1-.3s-.1-.1-.1-.2v-.3c0-.2 0-.4-.1-.5-.4-.7-1.2-.9-2-.8-.2 0-.3.1-.4.2-.2.1-.1.2-.3.2-.1 0-.2.1-.2.2v.2"/><path  d="M61.8-2.8v.2c-.1.1-.1.1-.2.1-.1.1-.1.3-.1.4-.2.1 0 .2 0 .3v.2c0 .1 0 .3.1.4 0 .2.2.4.4.5s.4.6.6.6.4-.1.5-.1c.2 0 .4 0 .6-.1s.1-.3.3-.5c.1-.1.3 0 .4-.1.2-.1.3-.3.4-.5v-.2c0-.1.1-.2.1-.3s-.1-.1-.1-.2v-.3c0-.2 0-.4-.1-.5-.4-.7-1.2-.9-2-.8-.2 0-.3.1-.4.2-.2.1-.1.2-.3.2-.1 0-.2.1-.2.2v.3c0 .1 0 0 0 0"/><path  d="M31.1-2.8v.2c-.1.1-.1.1-.2.1-.1.1-.1.3-.1.4-.2.1 0 .2 0 .3v.2c0 .1 0 .3.1.4.1.2.2.4.4.5s.4.6.6.6.4-.1.5-.1c.2 0 .4 0 .6-.1s.1-.3.3-.5c.1-.1.3 0 .4-.1.2-.1.3-.3.4-.5v-.2c0-.1.1-.2.1-.3s-.1-.1-.1-.2v-.3c0-.2 0-.4-.1-.5-.4-.7-1.2-.9-2-.8-.2 0-.3.1-.4.2-.2.1-.1.2-.3.2-.1 0-.2.1-.2.2v.3c0 .1 0 0 0 0"/></defs></svg>